<svg id="Layer_1" data-name="Layer 1" xmlns="http://www.w3.org/2000/svg" width="678.29" height="166.86" viewBox="0 0 678.29 166.86">
  <title>Journal</title>
  <line x1="455.87" y1="31.43" x2="455.87" y2="41.14" stroke="#696969" stroke-miterlimit="10" stroke-width="0.5"/>
  <line x1="230.8" y1="31.43" x2="230.8" y2="41.14" stroke="#696969" stroke-miterlimit="10" stroke-width="0.5"/>
  <line x1="7.99" y1="31.43" x2="7.99" y2="41.14" stroke="#696969" stroke-miterlimit="10" stroke-width="0.5"/>
  <rect x="452.73" y="40.57" width="6.29" height="23.43" rx="2" ry="2" fill="#231f20"/>
  <rect x="227.65" y="40.57" width="6.29" height="23.43" rx="2" ry="2" fill="#231f20"/>
  <rect x="4.85" y="40.57" width="6.29" height="23.43" rx="2" ry="2" fill="#231f20"/>
  <path d="M212.86,63.57h-197a2,2,0,0,1-2-2V42.9a2,2,0,0,1,2-2h197l11,11.33Z" fill="#0278b3"/>
  <path d="M438.86,63.57h-200a2,2,0,0,1-2-2V42.9a2,2,0,0,1,2-2h200l11,11.33Z" fill="#359696"/>
  <path d="M663.86,62.9h-200a2,2,0,0,1-2-2V42.24a2,2,0,0,1,2-2h200l11,11.33Z" fill="#37a05b"/>
  <text transform="translate(22.86 55.57)" font-size="11" fill="#fff" font-family="Myriad Pro" font-weight="700">I<tspan x="2.97" y="0">nitial </tspan><tspan x="29.45" y="0">R</tspan><tspan x="35.74" y="0">e</tspan><tspan x="41.38" y="0">vi</tspan><tspan x="49.79" y="0">e</tspan><tspan x="55.43" y="0">w</tspan></text>
  <text transform="translate(245.86 55.57)" font-size="11" fill="#fff" font-family="Myriad Pro" font-weight="700">Detailed <tspan x="42.62" y="0">R</tspan><tspan x="48.92" y="0">e</tspan><tspan x="54.56" y="0">vi</tspan><tspan x="62.96" y="0">e</tspan><tspan x="68.61" y="0">w &amp; </tspan><tspan x="88.49" y="0">E</tspan><tspan x="94.11" y="0">diting</tspan></text>
  <text transform="translate(469.86 55.57)" font-size="11" fill="#fff" font-family="Myriad Pro" font-weight="700">P<tspan x="5.87" y="0">os</tspan><tspan x="16.67" y="0">t</tspan><tspan x="20.49" y="0">-</tspan><tspan x="23.96" y="0">P</tspan><tspan x="29.97" y="0">ublic</tspan><tspan x="53.25" y="0">a</tspan><tspan x="58.77" y="0">tion </tspan><tspan x="80.22" y="0">R</tspan><tspan x="86.51" y="0">e</tspan><tspan x="92.16" y="0">vi</tspan><tspan x="100.56" y="0">e</tspan><tspan x="106.2" y="0">w</tspan></text>
  <text transform="translate(470.86 84.38)" font-size="11" fill="#231f20" font-family="Myriad Pro">Distill has ongoing <tspan x="87.58" y="0">r</tspan><tspan x="91.07" y="0">eview a</tspan><tspan x="125.68" y="0">f</tspan><tspan x="129.02" y="0">t</tspan><tspan x="132.59" y="0">er </tspan><tspan x="0" y="15">public</tspan><tspan x="28.68" y="15">a</tspan><tspan x="33.93" y="15">tion.</tspan><tspan x="54.57" y="15"> </tspan><tspan x="56.45" y="15">T</tspan><tspan x="61.84" y="15">his all</tspan><tspan x="87.7" y="15">o</tspan><tspan x="93.66" y="15">w</tspan><tspan x="101.69" y="15">s subje</tspan><tspan x="133.24" y="15">c</tspan><tspan x="138.31" y="15">t </tspan><tspan x="144.28" y="15">e</tspan><tspan x="149.76" y="15">xpe</tspan><tspan x="166.62" y="15">r</tspan><tspan x="170.48" y="15">ts </tspan><tspan x="0" y="30">and people t</tspan><tspan x="58.09" y="30">r</tspan><tspan x="61.96" y="30">ying </tspan><tspan x="84.3" y="30">t</tspan><tspan x="87.88" y="30">o build on </tspan><tspan x="136.75" y="30">w</tspan><tspan x="144.74" y="30">o</tspan><tspan x="150.78" y="30">r</tspan><tspan x="154.42" y="30">k </tspan><tspan x="161.91" y="30">t</tspan><tspan x="165.48" y="30">o </tspan><tspan x="0" y="45">r</tspan><tspan x="3.54" y="45">aise issues a</tspan><tspan x="58.46" y="45">f</tspan><tspan x="61.8" y="45">t</tspan><tspan x="65.37" y="45">er publicai</tspan><tspan x="113.36" y="45">t</tspan><tspan x="116.94" y="45">on.</tspan><tspan font-style="italic"><tspan x="0" y="75">O</tspan><tspan x="7.41" y="75">ngoing</tspan></tspan></text>
  <text transform="translate(245.86 84.38)" font-size="11" fill="#231f20" font-family="Myriad Pro">Distil<tspan x="23.07" y="0">l</tspan><tspan x="25.73" y="0">’</tspan><tspan x="27.21" y="0">s edi</tspan><tspan x="48.19" y="0">t</tspan><tspan x="51.76" y="0">ors and </tspan><tspan x="88.03" y="0">r</tspan><tspan x="91.52" y="0">evie</tspan><tspan x="110.4" y="0">w</tspan><tspan x="118.39" y="0">ers </tspan><tspan x="134.19" y="0">g</tspan><tspan x="140.27" y="0">i</tspan><tspan x="142.84" y="0">v</tspan><tspan x="148.02" y="0">e </tspan><tspan x="0" y="15">detailed </tspan><tspan x="39.87" y="15">f</tspan><tspan x="42.94" y="15">eedbac</tspan><tspan x="76.66" y="15">k</tspan><tspan x="81.97" y="15">, editin</tspan><tspan x="113.19" y="15">g</tspan><tspan x="119.17" y="15">, and desi</tspan><tspan x="162.37" y="15">g</tspan><tspan x="168.45" y="15">n </tspan><tspan x="0" y="30">advi</tspan><tspan x="19.37" y="30">c</tspan><tspan x="24.23" y="30">e </tspan><tspan x="32.08" y="30">t</tspan><tspan x="35.65" y="30">o help a</tspan><tspan x="72.13" y="30">r</tspan><tspan x="75.99" y="30">ticles meet Distil</tspan><tspan x="151.16" y="30">l</tspan><tspan x="153.82" y="30">’</tspan><tspan x="155.31" y="30">s </tspan><tspan x="0" y="45">high standa</tspan><tspan x="54.17" y="45">r</tspan><tspan x="57.66" y="45">d</tspan><tspan x="63.87" y="45">s</tspan><tspan x="68.1" y="45">.</tspan><tspan font-style="italic"><tspan x="0" y="75">A</tspan><tspan x="6.32" y="75">pp</tspan><tspan x="17.87" y="75">r</tspan><tspan x="21.31" y="75">o</tspan><tspan x="26.94" y="75">xima</tspan><tspan x="48.94" y="75">t</tspan><tspan x="52.34" y="75">ely 1-2 months</tspan></tspan></text>
  <text transform="translate(23.86 84.38)" font-size="11" fill="#231f20" font-family="Myriad Pro">Distill does an initial assesme<tspan x="132.44" y="0">n</tspan><tspan x="138.5" y="0">t of </tspan><tspan x="0" y="15">whether a d</tspan><tspan x="54.74" y="15">r</tspan><tspan x="58.28" y="15">a</tspan><tspan x="63.58" y="15">f</tspan><tspan x="66.91" y="15">t a</tspan><tspan x="78.19" y="15">r</tspan><tspan x="82.05" y="15">ticle looks like a fi</tspan><tspan x="161.71" y="15">t</tspan><tspan x="165.32" y="15">. </tspan><tspan x="0" y="30">T</tspan><tspan x="5.39" y="30">his s</tspan><tspan x="25.11" y="30">a</tspan><tspan x="30.33" y="30">v</tspan><tspan x="35.51" y="30">es both Distill and the authors </tspan><tspan x="0" y="45">ene</tspan><tspan x="17.13" y="45">r</tspan><tspan x="20.64" y="45">gy if it does</tspan><tspan x="73.07" y="45">n</tspan><tspan x="78.81" y="45">’</tspan><tspan x="80.97" y="45">t make sens</tspan><tspan x="134.75" y="45">e</tspan><tspan x="140.13" y="45">.</tspan><tspan font-style="italic"><tspan x="0" y="75">A</tspan><tspan x="6.32" y="75">pp</tspan><tspan x="17.87" y="75">r</tspan><tspan x="21.31" y="75">o</tspan><tspan x="26.94" y="75">xima</tspan><tspan x="48.94" y="75">t</tspan><tspan x="52.34" y="75">ely 1-2 </tspan><tspan x="82.9" y="75">w</tspan><tspan x="90.58" y="75">eeks</tspan></tspan></text>
  <text transform="translate(427.42 26.71)" font-size="11" fill="#231f20" font-family="Myriad Pro" font-weight="700">P<tspan x="6.28" y="0">ubli</tspan><tspan x="25.31" y="0">c</tspan><tspan x="30.32" y="0">a</tspan><tspan x="36.04" y="0">tion </tspan></text>
  <text transform="translate(1.83 26.71)" font-size="11" fill="#231f20" font-family="Myriad Pro" font-weight="700">Submission </text>
  <text transform="translate(206.98 13.38)" font-size="11" fill="#231f20" font-family="Myriad Pro" font-weight="700">T<tspan x="5.14" y="0">e</tspan><tspan x="10.94" y="0">n</tspan><tspan x="17.32" y="0">t</tspan><tspan x="21.36" y="0">a</tspan><tspan x="27.08" y="0">ti</tspan><tspan x="34.13" y="0">v</tspan><tspan x="39.8" y="0">e</tspan><tspan x="-5.23" y="13">A</tspan><tspan x="1.83" y="13">cc</tspan><tspan x="11.51" y="13">eptan</tspan><tspan x="40.19" y="13">c</tspan><tspan x="45.03" y="13">e </tspan></text>
</svg>
