<?xml version="1.0" encoding="utf-8"?>
<!-- Generator: Adobe Illustrator 19.0.0, SVG Export Plug-In . SVG Version: 6.00 Build 0)  -->
<svg version="1.1" id="Layer_1" xmlns="http://www.w3.org/2000/svg" xmlns:xlink="http://www.w3.org/1999/xlink" x="0px" y="0px"
	 width="678.3px" height="183.6px" viewBox="0 0 678.3 183.6" enable-background="new 0 0 678.3 183.6" xml:space="preserve">
<line stroke="#696969" stroke-width="0.5" stroke-miterlimit="10" x1="455.9" y1="31.4" x2="455.9" y2="41.1"/>
<line stroke="#696969" stroke-width="0.5" stroke-miterlimit="10" x1="230.8" y1="31.4" x2="230.8" y2="41.1"/>
<line stroke="#696969" stroke-width="0.5" stroke-miterlimit="10" x1="8" y1="31.4" x2="8" y2="41.1"/>
<path fill="#231F20" d="M454.7,64h2.3c1.1,0,2-0.9,2-2V42.6c0-1.1-0.9-2-2-2h-2.3c-1.1,0-2,0.9-2,2V62C452.7,63.1,453.6,64,454.7,64
	z"/>
<path fill="#231F20" d="M229.7,64h2.3c1.1,0,2-0.9,2-2V42.6c0-1.1-0.9-2-2-2h-2.3c-1.1,0-2,0.9-2,2V62C227.7,63.1,228.6,64,229.7,64
	z"/>
<path fill="#231F20" d="M6.8,64h2.3c1.1,0,2-0.9,2-2V42.6c0-1.1-0.9-2-2-2H6.8c-1.1,0-2,0.9-2,2V62C4.8,63.1,5.7,64,6.8,64z"/>
<path fill="#0078B3" d="M212.9,63.6h-197c-1.1,0-2-0.9-2-2V42.9c0-1.1,0.9-2,2-2h197l11,11.3L212.9,63.6z"/>
<path fill="#359696" d="M438.9,63.6h-200c-1.1,0-2-0.9-2-2V42.9c0-1.1,0.9-2,2-2h200l11,11.3L438.9,63.6z"/>
<path fill="#379F5A" d="M663.9,62.9h-200c-1.1,0-2-0.9-2-2V42.2c0-1.1,0.9-2,2-2h200l11,11.3L663.9,62.9z"/>
<text transform="matrix(1 0 0 1 22.8571 55.5716)" fill="#FFFFFF" font-family="'Helvetica-Bold'" font-size="11px">Initial Review</text>
<text transform="matrix(1 0 0 1 245.8571 55.5716)" fill="#FFFFFF" font-family="'Helvetica-Bold'" font-size="11px">Detailed Review &amp; Editing</text>
<text transform="matrix(1 0 0 1 469.8571 55.5716)" fill="#FFFFFF" font-family="'Helvetica-Bold'" font-size="11px">Post-Publication Review</text>
<rect x="470.9" y="76.6" fill="none" width="178.7" height="108"/>
<text transform="matrix(1 0 0 1 470.8571 84.4806)"><tspan x="0" y="0" fill="#231F20" font-family="'Helvetica'" font-size="11px">Distill has ongoing review after </tspan><tspan x="0" y="15" fill="#231F20" font-family="'Helvetica'" font-size="11px">publication. This allows subject </tspan><tspan x="0" y="30" fill="#231F20" font-family="'Helvetica'" font-size="11px">experts and people trying to build on </tspan><tspan x="0" y="45" fill="#231F20" font-family="'Helvetica'" font-size="11px">work to raise issues after </tspan><tspan x="0" y="60" fill="#231F20" font-family="'Helvetica'" font-size="11px">publicaiton.</tspan></text>
<rect x="245.9" y="76.6" fill="none" width="177.6" height="108"/>
<text transform="matrix(1 0 0 1 245.8571 84.4806)"><tspan x="0" y="0" fill="#231F20" font-family="'Helvetica'" font-size="11px">Distill’s editors and reviewers give </tspan><tspan x="0" y="15" fill="#231F20" font-family="'Helvetica'" font-size="11px">detailed feedback, editing, and </tspan><tspan x="0" y="30" fill="#231F20" font-family="'Helvetica'" font-size="11px">design advice to help articles meet </tspan><tspan x="0" y="45" fill="#231F20" font-family="'Helvetica'" font-size="11px">Distill’s high standards.</tspan></text>
<rect x="23.9" y="76.6" fill="none" width="183.3" height="108"/>
<text transform="matrix(1 0 0 1 23.8571 84.4806)"><tspan x="0" y="0" fill="#231F20" font-family="'Helvetica'" font-size="11px">Distill does an initial assesment of </tspan><tspan x="0" y="15" fill="#231F20" font-family="'Helvetica'" font-size="11px">whether a draft article looks like a fit. </tspan><tspan x="0" y="30" fill="#231F20" font-family="'Helvetica'" font-size="11px">This saves both Distill and the </tspan><tspan x="0" y="45" fill="#231F20" font-family="'Helvetica'" font-size="11px">authors energy if it doesn’t make </tspan><tspan x="0" y="60" fill="#231F20" font-family="'Helvetica'" font-size="11px">sense.</tspan></text>
<g>
	<rect x="421.9" y="18.9" fill="none" width="69" height="13.7"/>
	<text transform="matrix(1 0 0 1 426.7165 26.8139)" fill="#231F20" font-family="'Helvetica-Bold'" font-size="11px">Publication </text>
</g>
<g>
	<rect x="5" y="18.9" fill="none" width="69" height="13.7"/>
	<text transform="matrix(1 0 0 1 5 26.8139)" fill="#231F20" font-family="'Helvetica-Bold'" font-size="11px">Submission </text>
</g>
<g>
	<rect x="196.3" y="5.6" fill="none" width="69" height="25"/>
	<text transform="matrix(1 0 0 1 206.6402 13.4806)"><tspan x="0" y="0" fill="#231F20" font-family="'Helvetica-Bold'" font-size="11px">Tentative</tspan><tspan x="-6.7" y="13" fill="#231F20" font-family="'Helvetica-Bold'" font-size="11px">Acceptance </tspan></text>
</g>
<text transform="matrix(1 0 0 1 246.5238 175.702)" fill="#231F20" font-family="'Helvetica-Oblique'" font-size="11px">Approximately 1-2 months</text>
<text transform="matrix(1 0 0 1 470.8571 175.702)" fill="#231F20" font-family="'Helvetica-Oblique'" font-size="11px">Ongoing</text>
<text transform="matrix(1 0 0 1 23.8571 175.702)" fill="#231F20" font-family="'Helvetica-Oblique'" font-size="11px">Approximately 1-2 weeks</text>
</svg>
