<?xml version="1.0" encoding="utf-8"?>
<!-- Generator: Adobe Illustrator 19.0.0, SVG Export Plug-In . SVG Version: 6.00 Build 0)  -->
<svg version="1.1" xmlns="http://www.w3.org/2000/svg" xmlns:xlink="http://www.w3.org/1999/xlink" x="0px" y="0px" width="150px"
	 height="150px" viewBox="0 0 150 150" enable-background="new 0 0 150 150" xml:space="preserve">
<g id="bg" display="none">
	<rect id="XMLID_182_" display="inline" fill="#0D2E3E" width="150" height="150"/>
</g>
<g id="Layer_2">
	<path id="XMLID_108_" fill="none" stroke="#FFFFFF" stroke-miterlimit="10" d="M135.5,103.5v-84h-121v84h-6v8h133v-8H135.5z"/>
	<path id="XMLID_26_" fill="none" stroke="#FFFFFF" stroke-miterlimit="10" d="M121.9,95.7H28.5c-3.9,0-7-3.1-7-7V33.8
		c0-3.9,3.1-7,7-7h93.5c3.8,0,7,3.1,7,7v54.9C128.9,92.6,125.8,95.7,121.9,95.7z"/>
	<rect id="XMLID_139_" x="46.9" y="37.7" fill="#FFFFFF" stroke="#FFFFFF" stroke-miterlimit="10" width="57.1" height="58.3"/>
	<path id="XMLID_29_" fill="none" stroke="#FFFFFF" stroke-miterlimit="10" d="M88,103.5c0,1-1.1,3-2.4,3H66.8c-1.3,0-2.4-2-2.4-3
		H8.5v8h133v-8H88z"/>
	<g id="XMLID_64_">
		<line id="XMLID_15_" fill="#FFFFFF" stroke="#000000" stroke-miterlimit="10" x1="59" y1="49.5" x2="91" y2="49.5"/>
		<line id="XMLID_19_" fill="#FFFFFF" stroke="#000000" stroke-miterlimit="10" x1="59" y1="54.5" x2="91" y2="54.5"/>
		<line id="XMLID_20_" fill="#FFFFFF" stroke="#000000" stroke-miterlimit="10" x1="59" y1="61.5" x2="91" y2="61.5"/>
		<line id="XMLID_21_" fill="#FFFFFF" stroke="#000000" stroke-miterlimit="10" x1="59" y1="67.5" x2="91" y2="67.5"/>
		<line id="XMLID_22_" fill="#FFFFFF" stroke="#000000" stroke-miterlimit="10" x1="59" y1="72.5" x2="91" y2="72.5"/>
		<line id="XMLID_23_" fill="#FFFFFF" stroke="#000000" stroke-miterlimit="10" x1="59" y1="77.5" x2="91" y2="77.5"/>
		<line id="XMLID_24_" fill="#FFFFFF" stroke="#000000" stroke-miterlimit="10" x1="59" y1="84.5" x2="91" y2="84.5"/>
		<line id="XMLID_25_" fill="#FFFFFF" stroke="#000000" stroke-miterlimit="10" x1="59" y1="89.5" x2="91" y2="89.5"/>
	</g>
</g>
</svg>
