<?xml version="1.0" encoding="utf-8"?>
<!-- Generator: Adobe Illustrator 19.0.0, SVG Export Plug-In . SVG Version: 6.00 Build 0)  -->
<svg version="1.1" xmlns="http://www.w3.org/2000/svg" xmlns:xlink="http://www.w3.org/1999/xlink" x="0px" y="0px" width="150px"
	 height="150px" viewBox="0 0 150 150" enable-background="new 0 0 150 150" xml:space="preserve">
<g id="bg" display="none">
	<rect id="XMLID_182_" display="inline" fill="#0D2E3E" width="150" height="150"/>
</g>
<g id="Layer_2">
	<polygon id="XMLID_174_" fill="none" stroke="#FFFFFF" stroke-miterlimit="10" points="75.2,7.8 84,15 94.8,11.4 100.3,21.4 
		111.7,21.9 113.3,33.2 123.7,37.8 121.1,48.8 129.1,56.9 122.7,66.3 127.3,76.7 117.9,83.1 118.4,94.5 107.3,97.1 103.7,107.9 
		92.4,106.3 85.2,115.1 75.2,109.5 65.3,115.1 58,106.3 46.7,107.9 43.1,97.1 32.1,94.5 32.6,83.1 23.2,76.7 27.8,66.3 21.4,56.9 
		29.4,48.8 26.8,37.8 37.2,33.2 38.8,21.9 50.1,21.4 55.7,11.4 66.5,15 	"/>
	<circle id="XMLID_173_" fill="none" stroke="#FFFFFF" stroke-miterlimit="10" cx="75.2" cy="62.4" r="33.7"/>
	<circle id="XMLID_172_" fill="#FFFFFF" stroke="#FFFFFF" stroke-miterlimit="10" cx="75.2" cy="62.4" r="27.9"/>
	<polygon id="XMLID_171_" fill="none" stroke="#FFFFFF" stroke-miterlimit="10" points="75.2,109.5 65.3,115.1 58,106.3 50.6,107.3 
		41.6,133 59.4,133.2 74.6,142.3 81,112.7 	"/>
	<polygon id="XMLID_169_" fill="none" stroke="#FFFFFF" stroke-miterlimit="10" points="103.8,107.6 103.7,107.9 92.4,106.3 
		85.2,115.1 81,112.7 77.7,127.9 82.8,141.9 96.7,130.8 114.3,128.2 	"/>
</g>
</svg>
