<?xml version="1.0" encoding="utf-8"?>
<!-- Generator: Adobe Illustrator 19.0.0, SVG Export Plug-In . SVG Version: 6.00 Build 0)  -->
<svg version="1.1" xmlns="http://www.w3.org/2000/svg" xmlns:xlink="http://www.w3.org/1999/xlink" x="0px" y="0px" width="150px"
	 height="150px" viewBox="0 0 150 150" enable-background="new 0 0 150 150" xml:space="preserve">
<g id="bg" display="none">
	<rect id="XMLID_183_" display="inline" fill="#0D2E3E" width="150" height="150"/>
</g>
<g id="Layer_2">
	<path id="XMLID_16_" fill="#FFFFFF" fill-opacity="0.8" stroke="#FFFFFF" stroke-miterlimit="10" d="M-91,23.9l49.3,57.3l0.1,0.1
		c3.7,4.3,3.5,8.4,3.5,8.4l-0.1,0.1V18.1h-69l-0.2-0.1c7,0,12.1,1.6,15.7,5.1L-91,23.9z"/>
	<path id="XMLID_20_" fill="#FFFFFF" fill-opacity="0.4" stroke="#FFFFFF" stroke-miterlimit="10" d="M-38.1,123.5h-81.4V18.1
		l12.2-0.1c21.7,0,25.1,15.8,21.4,54.4C-37,67.8-38,89.7-38,89.7L-38.1,123.5z"/>
	<g id="XMLID_22_">
		<defs>
			<path id="XMLID_19_" d="M-91,23.9l49.3,57.3l0.1,0.1c3.7,4.3,3.5,8.4,3.5,8.4l-0.1,0.1V18.1h-69l-0.2-0.1c7,0,12.1,1.6,15.7,5.1
				L-91,23.9z"/>
		</defs>
		<clipPath id="XMLID_2_">
			<use xlink:href="#XMLID_19_"  overflow="visible"/>
		</clipPath>
		<g id="XMLID_3_" clip-path="url(#XMLID_2_)">
			<g id="XMLID_133_">
				<path id="XMLID_135_" fill="#FFFFFF" stroke="#FFFFFF" stroke-miterlimit="10" d="M-62.1-55.8v-2.1h-2.4c-0.2-2.1-0.6-4.4-1.3-6
					l3.5-2.4l-1.6-3l-3.5,1.9c-1-1.5-2.3-2.8-3.7-3.9l2.1-3.6l-2.8-1.6l-2,3.5c-1.6-0.8-4.1-1.3-5.1-1.5v-2.3h-4.2v2.2
					c-1.1,0.1-3.1,0.6-4.7,1.2l-1.8-3.6l-2.7,1.6l2.1,3.5c-1.5,1-2.8,2.3-3.8,3.7l-3.5-2.1l-1.6,2.8l3.5,2.7
					c-0.8,1.6-1.3,3.7-1.5,5.8h-4.8v2.1h4.7c0.1,4.2,0.5,3.5,1.2,5.2l-3.4,1.9l1.6,2.8l3.3-1.9c1,1.5,2.3,2.8,3.7,3.9l-2,3.4
					l2.8,1.6l1.3-3.3c1.6,0.8,3.5,1.3,4.6,1.6v5.9h5.3v-5.9c0-0.1,3.3-0.6,4.9-1.3l1.8,3.4l2.7-1.6l-2-3.3c1.5-1,2.8-2.3,3.9-3.8
					l3.4,2l1.6-2.8l-3.4-1.7c0.8-1.6,1.3-1.8,1.5-5H-62.1z"/>
				<circle id="XMLID_134_" fill="#FFFFFF" stroke="#FFFFFF" stroke-miterlimit="10" cx="-81" cy="-58.1" r="2.8"/>
			</g>
			<g id="XMLID_136_">
				<path id="XMLID_138_" fill="#FFFFFF" stroke="#FFFFFF" stroke-miterlimit="10" d="M53.2,109.1v-2.1h-1.9
					c-0.2-2.1-0.6-4.2-1.3-5.8l3.5-2.3l-1.6-3l-3.5,1.9c-1-1.5-2.3-2.8-3.7-3.9l2.1-3.6L44,88.7l-2.2,3.5c-1.6-0.8-4.3-1.3-5.3-1.5
					v-3.8h-4.2v3.7c-1.1,0.1-2.9,0.6-4.5,1.2L26,88.3l-2.6,1.6l2.1,3.5c-1.5,1-2.7,2.3-3.8,3.7L18.1,95l-1.6,2.8l3.5,2.5
					c-0.8,1.6-1.3,3.5-1.5,5.6h-5.2v3.2h5.1c0.1,3.2,0.5,3.2,1.2,4.9l-3.4,1.8l1.6,2.7l3.3-2c1,1.5,2.3,2.8,3.7,3.9l-2,3.4l2.8,1.6
					l1.1-3.3c1.6,0.8,3.3,1.3,4.4,1.5v4.5h5.3v-4.4c0-0.1,3.5-0.6,5.1-1.3l1.9,3.4l2.8-1.6l-1.9-3.3c1.5-1,2.8-2.3,3.9-3.8l3.4,2
					l1.6-2.8l-3.4-1.9c0.8-1.6,1.3-2,1.5-5.2H53.2z"/>
				<circle id="XMLID_137_" fill="#FFFFFF" stroke="#FFFFFF" stroke-miterlimit="10" cx="34.8" cy="107.1" r="2.8"/>
			</g>
			<g id="XMLID_140_">
				<path id="XMLID_142_" fill="#FFFFFF" stroke="#FFFFFF" stroke-miterlimit="10" d="M-22.3,24.9l-0.2-2.1l-2,0.2
					c-0.4-2.1-1-4.3-1.9-5.9l3.2-2.8l-1.9-2.8l-3.3,2.3c-1.2-1.4-2.6-2.6-4.1-3.5l1.7-3.8l-3-1.3l-1.8,3.7C-37.3,8.3-40,8-41.1,7.9
					l-0.2-2.3l-4.2,0.4l0.2,2.2c-1,0.2-2.9,0.8-4.4,1.7l-2.1-3.4l-2.5,1.9l2.4,3.3c-1.4,1.2-2.5,2.5-3.4,4.1l-3.7-1.7l-1.3,3
					l3.7,2.3c-0.6,1.7-0.9,3.8-0.9,5.9l-5.1,0.5l0.2,2.1l5-0.5c0.6,4.2,0.9,3.5,1.7,5l-3.2,2.3l1.9,2.6l3.1-2.3
					c1.2,1.4,2.6,2.6,4.1,3.5l-1.6,3.6l3,1.3l0.8-3.4c1.7,0.6,3.5,1,4.6,1.1l0.6,5.9l5.2-0.5l-0.6-5.8c0-0.1,3.4-0.9,4.9-1.8
					l2.2,3.2l2.6-1.9l-2.3-3.1c1.4-1.2,2.6-2.6,3.5-4.2l3.6,1.6l1.3-3l-3.5-1.4c0.6-1.7,1.1-1.9,1-5.1L-22.3,24.9z"/>
				<circle id="XMLID_141_" fill="#FFFFFF" stroke="#FFFFFF" stroke-miterlimit="10" cx="-41" cy="24.5" r="2.8"/>
			</g>
			<g id="XMLID_114_">
				<path id="XMLID_116_" fill="#FFFFFF" stroke="#FFFFFF" stroke-miterlimit="10" d="M-52,52l-0.2-2.1l-2,0.2
					c-0.5-3.1-1.1-4.4-1.9-5.9l3.2-2.8l-1.9-2.8l-3.3,2.2c-1.2-1.4-2.6-2.6-4.1-3.5l1.7-3.8l-3-1.3l-1.8,3.7
					c-1.7-0.6-4.3-0.8-5.4-0.9l-0.3-3.2l-4.2,0.4l0.3,3.1c0,0.1-2.9,0.9-4.4,1.7l-2.1-3.4l-2.5,1.9l2.4,3.3
					c-1.4,1.2-2.5,2.5-3.4,4.1l-3.7-1.7l-1.3,3l3.7,2.4c-0.6,1.7-1,2.9-0.9,6l-5.1,0.5L-92,55l5-0.5c0.4,3.1,0.9,3.4,1.7,4.9
					l-3.2,2.2l1.9,2.6l3.1-2.3c1.2,1.4,2.6,2.6,4.1,3.5l-1.6,3.6l3,1.3l1.3-3.5c1.7,0.6,3,1,5.1,1l0.5,5l4.2-0.4l-0.5-5
					c0-0.1,3.4-0.9,4.9-1.8l2.2,3.2l2.6-1.9L-60,64c1.4-1.2,2.6-2.6,3.5-4.2l3.6,1.6l1.3-3l-3.5-1.3c0.6-1.7,1.1-2.1,1-5L-52,52z"/>
				<circle id="XMLID_115_" fill="#FFFFFF" stroke="#FFFFFF" stroke-miterlimit="10" cx="-70.7" cy="51.4" r="2.8"/>
			</g>
		</g>
	</g>
	<path id="XMLID_129_" fill="none" stroke="#FFFFFF" stroke-miterlimit="10" d="M-107.3,18c21.7,0,25.1,15.8,21.4,54.4
		C-37,67.8-38,89.7-38,89.7"/>
	<g id="XMLID_118_">
		<line id="XMLID_127_" fill="none" stroke="#FFFFFF" stroke-miterlimit="10" x1="-99" y1="41.7" x2="-87" y2="41.7"/>
		<line id="XMLID_126_" fill="none" stroke="#FFFFFF" stroke-miterlimit="10" x1="-99" y1="50.4" x2="-87" y2="50.4"/>
		<line id="XMLID_125_" fill="none" stroke="#FFFFFF" stroke-miterlimit="10" x1="-99" y1="59.2" x2="-86.1" y2="59.2"/>
		<line id="XMLID_124_" fill="none" stroke="#FFFFFF" stroke-miterlimit="10" x1="-99" y1="68" x2="-89.2" y2="68"/>
		<line id="XMLID_123_" fill="none" stroke="#FFFFFF" stroke-miterlimit="10" x1="-99" y1="76.8" x2="-72.2" y2="76.8"/>
		<line id="XMLID_122_" fill="none" stroke="#FFFFFF" stroke-miterlimit="10" x1="-99" y1="85.5" x2="-59.5" y2="85.5"/>
		<line id="XMLID_121_" fill="none" stroke="#FFFFFF" stroke-miterlimit="10" x1="-99" y1="94.3" x2="-59.5" y2="94.3"/>
		<line id="XMLID_120_" fill="none" stroke="#FFFFFF" stroke-miterlimit="10" x1="-99" y1="103.1" x2="-59.5" y2="103.1"/>
	</g>
	<path id="XMLID_21_" fill="#FFFFFF" fill-opacity="0.8" stroke="#FFFFFF" stroke-miterlimit="10" d="M-91,23.9l49.3,57.3l0.1,0.1
		c-4.9-5.6-16.6-11.5-44.4-9c2.5-26.2,1.8-41.8-5.7-49.2"/>
	<line id="XMLID_15_" fill="none" stroke="#FFFFFF" stroke-miterlimit="10" x1="-91.3" y1="23.6" x2="-91" y2="23.9"/>
	<polygon id="XMLID_99_" fill="none" stroke="#FFFFFF" stroke-miterlimit="10" points="122,133.4 30.6,133.4 30.6,14.7 104.8,14.7 
		122,32.1 	"/>
	<polyline id="XMLID_98_" fill="none" stroke="#FFFFFF" stroke-miterlimit="10" points="104.9,15.7 104.9,33.5 122.2,33.5 	"/>
	<g id="XMLID_29_">
		<line id="XMLID_97_" fill="#037599" stroke="#FFFFFF" stroke-miterlimit="10" x1="53.2" y1="31.5" x2="98.4" y2="31.5"/>
		<line id="XMLID_96_" fill="#037599" stroke="#FFFFFF" stroke-miterlimit="10" x1="53.2" y1="40.9" x2="98.4" y2="40.9"/>
		<line id="XMLID_95_" fill="#037599" stroke="#FFFFFF" stroke-miterlimit="10" x1="53.2" y1="50.4" x2="98.4" y2="50.4"/>
		<line id="XMLID_94_" fill="#037599" stroke="#FFFFFF" stroke-miterlimit="10" x1="53.2" y1="60.9" x2="98.4" y2="60.9"/>
		<line id="XMLID_93_" fill="#037599" stroke="#FFFFFF" stroke-miterlimit="10" x1="53.2" y1="70.3" x2="98.4" y2="70.3"/>
		<line id="XMLID_92_" fill="#037599" stroke="#FFFFFF" stroke-miterlimit="10" x1="53.2" y1="80.9" x2="98.4" y2="80.9"/>
		<line id="XMLID_91_" fill="#037599" stroke="#FFFFFF" stroke-miterlimit="10" x1="53.2" y1="90.3" x2="98.4" y2="90.3"/>
		<line id="XMLID_90_" fill="#037599" stroke="#FFFFFF" stroke-miterlimit="10" x1="53.2" y1="100.8" x2="98.4" y2="100.8"/>
		<line id="XMLID_64_" fill="#037599" stroke="#FFFFFF" stroke-miterlimit="10" x1="53.2" y1="110.3" x2="98.4" y2="110.3"/>
		<line id="XMLID_53_" fill="#037599" stroke="#FFFFFF" stroke-miterlimit="10" x1="53.2" y1="120.8" x2="98.4" y2="120.8"/>
	</g>
	<circle id="XMLID_26_" fill="#FFFFFF" cx="77.2" cy="77" r="30.7"/>
	<g id="XMLID_23_">
		<path id="XMLID_25_" fill="#FFFFFF" stroke="#000000" stroke-miterlimit="10" d="M98.2,78.7v-3h-3.5c-0.2-2-0.6-3.8-1.4-5.6
			l3.7-2.2l-1.7-3L91.7,67c-1.1-1.6-2.4-2.9-3.9-4.1l2.2-3.8l-3-1.7l-1.9,3.7c-1.7-0.8-4.1-1.4-5.2-1.6v-4.3h-4.1v4.2
			c-1,0.1-3.7,0.6-5.5,1.3L68.2,57l-3,1.7l2.1,3.7c-1.6,1.1-3,2.4-4.1,3.9l-3.8-2.2l-1.7,3l3.7,2.1c-0.8,1.7-1.4,3.4-1.6,5.4h-4.3v3
			h4.2c0.1,4.1,0.6,4.1,1.3,5.9l-3.6,2.2l1.7,3l3.5-2c1.1,1.6,2.4,3,4,4.2l-2.1,3.6l3,1.7l1.9-3.5c1.7,0.8,4.4,1.4,5.4,1.6V99h5.1
			v-4.5c0-0.1,3.2-0.6,5-1.4l1.7,3.6l2.8-1.7l-2.1-3.5c1.6-1.1,2.9-2.5,4.1-4l3.6,2.1l1.7-3l-3.6-2.2c0.8-1.7,1.4-2.6,1.6-5.7H98.2z
			"/>
		<circle id="XMLID_24_" fill="#FFFFFF" stroke="#000000" stroke-miterlimit="10" cx="77.3" cy="77" r="3"/>
	</g>
</g>
</svg>
