<?xml version="1.0" encoding="utf-8"?>
<!-- Generator: Adobe Illustrator 19.0.0, SVG Export Plug-In . SVG Version: 6.00 Build 0)  -->
<svg version="1.1" id="Layer_1" xmlns="http://www.w3.org/2000/svg" xmlns:xlink="http://www.w3.org/1999/xlink" x="0px" y="0px"
	 width="200px" height="200px" viewBox="-539 351 200 200" style="enable-background:new -539 351 200 200;" xml:space="preserve">
<style type="text/css">
	.st0{fill:#037599;stroke:#FFFFFF;stroke-miterlimit:10;}
	.st1{fill:#FFFFFF;}
	.st2{fill:none;stroke:#FFFFFF;stroke-miterlimit:10;}
	.st3{fill:none;stroke:#037599;stroke-miterlimit:10;}
</style>
<g id="XMLID_170_">
	<path id="XMLID_26_" class="st0" d="M-393,479.4h-88.7c-3.8,0-7-3.2-7-7v-51.9c0-3.8,3.2-7,7-7h88.7c3.9,0,7,3.2,7,7v51.9
		C-386,476.3-389.1,479.4-393,479.4z"/>
	<rect id="XMLID_139_" x="-468.4" y="421.4" class="st1" width="62.4" height="58.7"/>
	<polyline id="XMLID_16_" class="st2" points="-495.3,485.8 -495.3,406.1 -379.5,406.1 -379.5,485.8 	"/>
	<path id="XMLID_29_" class="st2" d="M-426.1,485.5c0,1-1,3-2.3,3h-17.9c-1.3,0-2.3-2-2.3-3H-501v8h127v-8H-426.1z"/>
	<g id="XMLID_64_">
		<line id="XMLID_15_" class="st3" x1="-454.5" y1="432.5" x2="-420.5" y2="432.5"/>
		<line id="XMLID_19_" class="st3" x1="-454.5" y1="438.5" x2="-420.5" y2="438.5"/>
		<line id="XMLID_20_" class="st3" x1="-454.5" y1="443.5" x2="-420.5" y2="443.5"/>
		<line id="XMLID_21_" class="st3" x1="-454.5" y1="449.5" x2="-420.5" y2="449.5"/>
		<line id="XMLID_22_" class="st3" x1="-454.5" y1="455.5" x2="-420.5" y2="455.5"/>
		<line id="XMLID_23_" class="st3" x1="-454.5" y1="461.5" x2="-420.5" y2="461.5"/>
		<line id="XMLID_24_" class="st3" x1="-454.5" y1="466.5" x2="-420.5" y2="466.5"/>
		<line id="XMLID_25_" class="st3" x1="-454.5" y1="472.5" x2="-420.5" y2="472.5"/>
	</g>
</g>
</svg>
