<?xml version="1.0" encoding="utf-8"?>
<!-- Generator: Adobe Illustrator 19.0.0, SVG Export Plug-In . SVG Version: 6.00 Build 0)  -->
<svg version="1.1" id="Layer_1" xmlns="http://www.w3.org/2000/svg" xmlns:xlink="http://www.w3.org/1999/xlink" x="0px" y="0px"
	 width="200px" height="200px" viewBox="-539 351 200 200" style="enable-background:new -539 351 200 200;" xml:space="preserve">
<style type="text/css">
	.st0{fill:#FFFFFF;stroke:#037599;stroke-miterlimit:10;}
	.st1{clip-path:url(#SVGID_2_);}
	.st2{clip-path:url(#SVGID_4_);}
	.st3{clip-path:url(#SVGID_6_);}
	.st4{clip-path:url(#SVGID_8_);}
	.st5{fill:#037599;stroke:#FFFFFF;stroke-miterlimit:10;}
	.st6{fill:none;stroke:#FFFFFF;stroke-miterlimit:10;}
</style>
<rect id="XMLID_87_" x="-450.6" y="396.2" class="st0" width="54.8" height="73"/>
<g id="XMLID_131_">
	<g>
		<defs>
			<rect id="SVGID_1_" x="-479.9" y="397.1" width="83.1" height="73"/>
		</defs>
		<clipPath id="SVGID_2_">
			<use xlink:href="#SVGID_1_"  style="overflow:visible;"/>
		</clipPath>
		<g id="XMLID_133_" class="st1">
			<path id="XMLID_135_" class="st0" d="M-433,398.5v-3h-3.1c-0.2-2-0.6-3.5-1.3-5.2l3.5-2l-1.6-2.8l-3.5,2c-1-1.5-2.3-2.8-3.7-3.8
				l2.1-3.6l-2.8-1.6l-2.3,3.5c-1.6-0.8-4.3-1.3-5.3-1.5v-4h-3v4c-1,0.1-3.5,0.6-5.1,1.2l-2-3.6l-2.8,1.6l2,3.5
				c-1.5,1-2.8,2.3-3.9,3.7l-3.6-2.1l-1.6,2.9l3.5,1.8c-0.8,1.6-1.3,3-1.6,5h-4.9v3h4.8c0.1,4,0.5,4,1.2,5.6l-3.4,2.1l1.6,2.9
				l3.3-1.9c1,1.5,2.3,2.9,3.8,4l-2,3.4l2.8,1.6l1.7-3.3c1.6,0.8,4.1,1.3,5.1,1.6v4h4v-3.9c0-0.1,3.5-0.6,5.1-1.3l1.9,3.4l2.8-1.6
				l-1.9-3.3c1.5-1,2.8-2.3,3.9-3.8l3.4,2l1.6-2.8l-3.4-2.1c0.8-1.6,1.3-2.4,1.5-5.4h3.2V398.5z"/>
			<circle id="XMLID_134_" class="st0" cx="-452.6" cy="397" r="2.8"/>
		</g>
	</g>
	<g>
		<defs>
			<rect id="SVGID_3_" x="-479.9" y="397.1" width="83.1" height="73"/>
		</defs>
		<clipPath id="SVGID_4_">
			<use xlink:href="#SVGID_3_"  style="overflow:visible;"/>
		</clipPath>
		<g id="XMLID_136_" class="st2">
			<path id="XMLID_138_" class="st0" d="M-374,447.5v-3h-2.5c-0.2-2-0.6-3.5-1.3-5.2l3.5-2l-1.6-2.8l-3.5,2c-1-1.5-2.3-2.8-3.7-3.8
				l2.1-3.6l-2.8-1.6l-2,3.5c-1.6-0.8-4.1-1.3-5.1-1.5v-4h-4v4c-1,0.1-3.2,0.6-4.8,1.2l-1.9-3.6l-2.7,1.6l2.1,3.5
				c-1.5,1-2.8,2.3-3.9,3.7l-3.5-2.1l-1.6,2.8l3.5,1.8c-0.8,1.6-1.3,3-1.6,5h-4.7v3h4.4c0.1,4,0.5,4,1.2,5.6l-3.4,2.1l1.6,2.9
				l3.3-1.9c1,1.5,2.3,2.9,3.8,4l-2,3.4l2.8,1.6l1.4-3.3c1.6,0.8,3.8,1.3,4.8,1.6v4h5v-3.9c0-0.1,3.3-0.6,4.9-1.3l1.8,3.4l2.7-1.6
				l-2-3.3c1.5-1,2.8-2.3,3.9-3.8l3.4,2l1.6-2.8l-3.4-2.2c0.8-1.6,1.3-2.4,1.5-5.4H-374L-374,447.5z"/>
			<circle id="XMLID_137_" class="st0" cx="-393" cy="446" r="2.8"/>
		</g>
	</g>
	<g>
		<defs>
			<rect id="SVGID_5_" x="-479.9" y="397.1" width="83.1" height="73"/>
		</defs>
		<clipPath id="SVGID_6_">
			<use xlink:href="#SVGID_5_"  style="overflow:visible;"/>
		</clipPath>
		<g id="XMLID_140_" class="st3">
			<path id="XMLID_142_" class="st0" d="M-373,398.5v-3h-2.5c-0.2-2-0.6-3.5-1.3-5.2l3.5-2l-1.6-2.8l-3.5,2c-1-1.5-2.3-2.8-3.7-3.8
				l2.1-3.6l-2.8-1.6l-2,3.5c-1.6-0.8-4.1-1.3-5.1-1.5v-4h-4v4c-1,0.1-3.2,0.6-4.8,1.2l-1.9-3.6l-2.7,1.6l2.1,3.5
				c-1.5,1-2.8,2.3-3.9,3.7l-3.6-2.1l-1.6,2.8l3.5,1.8c-0.8,1.6-1.3,3-1.6,5h-4.6v3h4.4c0.1,4,0.5,4,1.2,5.6l-3.4,2.1l1.6,2.9
				l3.3-1.9c1,1.5,2.3,2.9,3.8,4l-2,3.4l2.8,1.6l1.5-3.3c1.6,0.8,3.8,1.3,4.8,1.6v4h5v-3.9c0-0.1,3.3-0.6,4.9-1.3l1.7,3.4l2.7-1.6
				l-2-3.3c1.5-1,2.8-2.3,3.9-3.8l3.4,2l1.6-2.8l-3.4-2.1c0.8-1.6,1.3-2.4,1.5-5.4h2.7V398.5z"/>
			<circle id="XMLID_141_" class="st0" cx="-392.1" cy="397" r="2.8"/>
		</g>
	</g>
	<g>
		<defs>
			<rect id="SVGID_7_" x="-479.9" y="397.1" width="83.1" height="73"/>
		</defs>
		<clipPath id="SVGID_8_">
			<use xlink:href="#SVGID_7_"  style="overflow:visible;"/>
		</clipPath>
		<g id="XMLID_114_" class="st4">
			<path id="XMLID_116_" class="st0" d="M-404,421.5v-3h-3.2c-0.2-2-0.6-3.5-1.3-5.1l3.5-2l-1.6-2.8l-3.5,2c-1-1.5-2.3-2.8-3.7-3.8
				l2.1-3.6l-2.8-1.6l-2.2,3.5c-1.6-0.8-4.3-1.3-5.3-1.5v-4.1h-4v4c-1,0.1-3.1,0.6-4.7,1.2l-1.8-3.6l-2.7,1.6l2.1,3.5
				c-1.5,1-2.8,2.3-3.9,3.7l-3.5-2.1l-1.6,2.8l3.5,1.8c-0.8,1.6-1.3,2.9-1.6,4.9h-4.8v3h4.7c0.1,4,0.5,4,1.2,5.6l-3.4,2.2l1.6,2.9
				l3.3-1.9c1,1.5,2.3,2.9,3.8,4l-2,3.4l2.8,1.6l1.3-3.3c1.6,0.8,3.6,1.3,4.6,1.6v3.9h5v-3.9c0-0.1,3.4-0.6,5.1-1.3l1.8,3.4l2.7-1.6
				l-2-3.3c1.5-1,2.8-2.3,3.9-3.8l3.4,2l1.6-2.8l-3.4-2.2c0.8-1.6,1.3-2.4,1.5-5.4h3.5V421.5z"/>
			<circle id="XMLID_115_" class="st0" cx="-423.8" cy="420.1" r="2.8"/>
		</g>
	</g>
</g>
<polygon id="XMLID_130_" class="st5" points="-396.7,505.4 -481,505.4 -481,396.4 -466,396.2 -453.8,401.3 -396.7,469.9 "/>
<path id="XMLID_129_" class="st5" d="M-468.4,396.2c22.5,0,26,16.3,22.1,56.2c50.6-4.7,49.2,17.9,49.2,17.9"/>
<g id="XMLID_118_">
	<line id="XMLID_128_" class="st6" x1="-459.7" y1="411.6" x2="-448" y2="411.6"/>
	<line id="XMLID_127_" class="st6" x1="-459.7" y1="420.6" x2="-447.4" y2="420.6"/>
	<line id="XMLID_126_" class="st6" x1="-459.7" y1="429.7" x2="-447.4" y2="429.7"/>
	<line id="XMLID_125_" class="st6" x1="-459.7" y1="438.8" x2="-446.4" y2="438.8"/>
	<line id="XMLID_124_" class="st6" x1="-459.7" y1="447.9" x2="-449.6" y2="447.9"/>
	<line id="XMLID_123_" class="st6" x1="-459.7" y1="456.9" x2="-432" y2="456.9"/>
	<line id="XMLID_122_" class="st6" x1="-459.7" y1="466" x2="-418.9" y2="466"/>
	<line id="XMLID_121_" class="st6" x1="-459.7" y1="475.1" x2="-418.9" y2="475.1"/>
	<line id="XMLID_120_" class="st6" x1="-459.7" y1="484.2" x2="-418.9" y2="484.2"/>
	<line id="XMLID_119_" class="st6" x1="-459.7" y1="493.3" x2="-418.9" y2="493.3"/>
</g>
<polygon id="XMLID_147_" class="st0" points="-430.4,429.8 -403,459.2 -419.3,451.9 -431.3,451.4 -446.2,452.4 -445.3,441.3 
	-444.3,420.7 -449.6,406.7 "/>
</svg>
