<?xml version="1.0" encoding="utf-8"?>
<!-- Generator: Adobe Illustrator 19.0.0, SVG Export Plug-In . SVG Version: 6.00 Build 0)  -->
<svg version="1.1" id="Layer_1" xmlns="http://www.w3.org/2000/svg" xmlns:xlink="http://www.w3.org/1999/xlink" x="0px" y="0px"
	 width="200px" height="200px" viewBox="-539 351 200 200" style="enable-background:new -539 351 200 200;" xml:space="preserve">
<style type="text/css">
	.st0{fill:#037599;stroke:#FFFFFF;stroke-miterlimit:10;}
	.st1{fill:#FFFFFF;stroke:#037599;stroke-miterlimit:10;}
</style>
<polygon id="XMLID_20_" class="st0" points="-402.7,501.1 -419.6,503.7 -433,514.3 -456.9,448.2 -434.7,438.5 "/>
<polygon id="XMLID_19_" class="st0" points="-440.8,514.7 -455.5,506 -472.6,505.8 -449.3,439.4 -426,446 "/>
<polygon id="XMLID_16_" class="st1" points="-440.2,385.4 -431.8,392.4 -421.5,388.9 -416.1,398.4 -405.2,399 -403.7,409.8 
	-393.7,414.2 -396.2,424.9 -388.5,432.6 -394.6,441.6 -390.2,451.6 -399.2,457.8 -398.7,468.7 -409.4,471.2 -412.9,481.6 
	-423.7,480.1 -430.7,488.5 -440.2,483.2 -449.8,488.5 -456.8,480.1 -467.6,481.6 -471.1,471.2 -481.7,468.7 -481.2,457.8 
	-490.3,451.6 -485.9,441.6 -492,432.6 -484.3,424.9 -486.8,414.2 -476.8,409.8 -475.3,399 -464.4,398.4 -459,388.9 -448.7,392.4 "/>
<polygon id="XMLID_145_" class="st0" points="-440.2,385.4 -431.8,392.4 -421.5,388.9 -416.1,398.4 -405.2,399 -403.7,409.8 
	-393.7,414.2 -396.2,424.9 -388.5,432.6 -394.6,441.6 -390.2,451.6 -399.2,457.8 -398.7,468.7 -409.4,471.2 -412.9,481.6 
	-423.7,480.1 -430.7,488.5 -440.2,483.2 -449.8,488.5 -456.8,480.1 -467.6,481.6 -471.1,471.2 -481.7,468.7 -481.2,457.8 
	-490.3,451.6 -485.9,441.6 -492,432.6 -484.3,424.9 -486.8,414.2 -476.8,409.8 -475.3,399 -464.4,398.4 -459,388.9 -448.7,392.4 "/>
<circle id="XMLID_15_" class="st1" cx="-440.2" cy="437.9" r="37.6"/>
<circle id="XMLID_143_" class="st0" cx="-440.2" cy="437.9" r="24.9"/>
<circle id="XMLID_146_" class="st1" cx="-440.2" cy="437.9" r="29.8"/>
</svg>
