<?xml version="1.0" encoding="utf-8"?>
<!-- Generator: Adobe Illustrator 19.0.0, SVG Export Plug-In . SVG Version: 6.00 Build 0)  -->
<svg version="1.1" id="Layer_1" xmlns="http://www.w3.org/2000/svg" xmlns:xlink="http://www.w3.org/1999/xlink" x="0px" y="0px"
	 width="64px" height="64px" viewBox="-607 419 64 64" style="enable-background:new -607 419 64 64;" xml:space="preserve">
<style type="text/css">
	.st0{fill:none;stroke:#000000;stroke-width:2;stroke-linecap:round;stroke-linejoin:round;stroke-miterlimit:10;}
</style>
<path class="st0" d="M-575,476.3c-8,0-14.6-6.4-14.6-14.5S-575,435.9-575,421c0,14.9,14.6,32.8,14.6,40.8S-567,476.3-575,476.3z"/>
<path class="st0" d="M-575,471.4c-5.4,0-9.7-4.3-9.7-9.6c0-2.2,2.7-7.6,5.1-12.3c1.5-3,3.1-6.2,4.6-9.5c1.5,3.4,3.1,6.6,4.6,9.5
	c2.4,4.7,5.1,10.1,5.1,12.3C-565.3,467.1-569.6,471.4-575,471.4z"/>
<path class="st0" d="M-575,467.4c-3.2,0-5.7-2.5-5.7-5.6c0.1-1.6,3.1-7.4,4.7-10.5c0.4-0.7,0.7-1.6,1-2.8c0.3,1.1,0.7,2,1,2.8
	c1.6,3.1,4.6,9,4.7,10.6C-569.3,464.9-571.9,467.4-575,467.4z"/>
<circle cx="-574.6" cy="461.1" r="2.2"/>
</svg>
