<?xml version="1.0" encoding="utf-8"?>
<!-- Generator: Adobe Illustrator 19.0.0, SVG Export Plug-In . SVG Version: 6.00 Build 0)  -->
<svg version="1.1" id="Layer_1" xmlns="http://www.w3.org/2000/svg" xmlns:xlink="http://www.w3.org/1999/xlink" x="0px" y="0px"
	 width="64px" height="64px" viewBox="-607 419 64 64" style="enable-background:new -607 419 64 64;" xml:space="preserve">
<style type="text/css">
	.st0{fill:none;stroke:#000000;stroke-width:2;stroke-linecap:round;stroke-linejoin:round;stroke-miterlimit:10;}
	.st1{fill:none;stroke:#000000;stroke-width:2;stroke-linecap:round;stroke-miterlimit:10;}
</style>
<path class="st0" d="M-575,465c-6.6,0-12-5.3-12-11.9c0-6.6,12-21.3,12-33.5c0,12.2,12,26.9,12,33.5C-563,459.7-568.4,465-575,465z"
	/>
<path class="st0" d="M-575,465c-6.6,0-12-5.3-12-11.9c0-6.6,12-21.3,12-33.5c0,12.2,12,26.9,12,33.5C-563,459.7-568.4,465-575,465z"
	/>
<path class="st0" d="M-575,461c-4.4,0-8-3.5-8-7.9c0-1.8,2.2-6.2,4.2-10.1c1.2-2.4,2.6-5.1,3.8-7.8c1.2,2.8,2.6,5.4,3.8,7.8
	c2,3.9,4.2,8.3,4.2,10.1C-567,457.4-570.6,461-575,461z"/>
<g>
	<path class="st0" d="M-575,457c-2.2,0-3.9-1.7-4-3.8c0.2-1.4,2.5-5.9,3.8-8.4c0.1-0.1,0.1-0.3,0.2-0.4c0.1,0.1,0.1,0.3,0.2,0.4
		c1.3,2.5,3.6,7,3.8,8.4C-571.1,455.3-572.8,457-575,457z"/>
</g>
<path class="st1" d="M-585.3,432.7c-13.3,7.2-15.6,27.3-3.8,36.9c12.2,9.9,32.2,3,35.8-12.2c2.3-9.9-2.9-20.5-11.9-25"/>
<circle cx="-575.1" cy="452.9" r="1.4"/>
</svg>
