<?xml version="1.0" encoding="utf-8"?>
<!-- Generator: Adobe Illustrator 19.0.0, SVG Export Plug-In . SVG Version: 6.00 Build 0)  -->
<svg version="1.1" xmlns="http://www.w3.org/2000/svg" xmlns:xlink="http://www.w3.org/1999/xlink" x="0px" y="0px" width="150px"
	 height="150px" viewBox="0 0 150 150" enable-background="new 0 0 150 150" xml:space="preserve">
<g id="bg" display="none">
	<rect id="XMLID_183_" display="inline" fill="#0D2E3E" width="150" height="150"/>
</g>
<g id="Layer_2">
	<rect id="XMLID_87_" x="62" y="18" fill="#FFFFFF" stroke="#037599" stroke-miterlimit="10" width="57" height="76"/>
	<g id="XMLID_131_">
		<defs>
			<polyline id="XMLID_2_" points="55.1,19 118,19 118,95 			"/>
		</defs>
		<clipPath id="XMLID_15_">
			<use xlink:href="#XMLID_2_"  overflow="visible"/>
		</clipPath>
		<g id="XMLID_133_" clip-path="url(#XMLID_15_)">
			<path id="XMLID_135_" fill="#FFFFFF" stroke="#037599" stroke-miterlimit="10" d="M80.5,20.5v-3h-3.4c-0.2-2-0.6-3.8-1.4-5.5
				l3.7-2.1L77.7,7L74.1,9c-1.1-1.5-2.4-2.9-3.9-4l2.2-3.7l-2.9-1.7l-1.9,3.7c-1.7-0.8-4.1-1.3-5.1-1.6v-4.2h-4v4.1
				c-1,0.1-3.7,0.6-5.4,1.3L51-0.8l-2.9,1.7l2.1,3.6c-1.6,1.1-2.9,2.4-4,3.8l-3.7-2.1l-1.7,2.9l3.6,2c-0.8,1.7-1.4,3.3-1.6,5.3h-4.3
				v3h4.2c0.1,4,0.6,4,1.3,5.8l-3.6,2.2l1.7,3l3.5-2c1.1,1.6,2.4,3,3.9,4.1l-2,3.5l2.9,1.7l1.9-3.5c1.7,0.8,4.3,1.4,5.3,1.6v4.5h5
				v-4.4c0-0.1,3.2-0.6,4.9-1.3l1.7,3.5l2.8-1.7l-2.1-3.5c1.6-1.1,2.9-2.4,4-3.9l3.5,2.1l1.7-2.9l-3.5-2.2c0.8-1.7,1.3-2.6,1.6-5.6
				H80.5z"/>
			<circle id="XMLID_134_" fill="#FFFFFF" stroke="#037599" stroke-miterlimit="10" cx="59.9" cy="18.9" r="3"/>
		</g>
		<g id="XMLID_136_" clip-path="url(#XMLID_15_)">
			<path id="XMLID_138_" fill="#FFFFFF" stroke="#037599" stroke-miterlimit="10" d="M142.5,71.5v-3h-3.4c-0.2-2-0.6-3.8-1.4-5.5
				l3.7-2.1l-1.7-2.9l-3.6,2.1c-1.1-1.5-2.4-2.9-3.9-4l2.2-3.7l-2.9-1.7l-1.9,3.7c-1.7-0.8-4.1-1.3-5.1-1.6v-4.2h-4v4.1
				c-1,0.1-3.7,0.6-5.4,1.3l-2.1-3.7l-2.9,1.7l2.1,3.6c-1.6,1.1-2.9,2.4-4,3.8l-3.7-2.1l-1.7,2.9l3.6,2c-0.8,1.7-1.4,3.3-1.6,5.3
				h-4.3v3h4.2c0.1,4,0.6,4,1.3,5.8l-3.6,2.2l1.7,3l3.5-2c1.1,1.6,2.4,3,3.9,4.1l-2,3.5l2.9,1.7l1.9-3.5c1.7,0.8,4.3,1.4,5.3,1.6
				v4.5h5v-4.4c0-0.1,3.2-0.6,4.9-1.3l1.7,3.5l2.8-1.7l-2.1-3.5c1.6-1.1,2.9-2.4,4-3.9l3.5,2.1l1.7-2.9l-3.5-2.2
				c0.8-1.7,1.3-2.6,1.6-5.6H142.5z"/>
			<circle id="XMLID_137_" fill="#FFFFFF" stroke="#037599" stroke-miterlimit="10" cx="121.9" cy="69.9" r="3"/>
		</g>
		<g id="XMLID_140_" clip-path="url(#XMLID_15_)">
			<path id="XMLID_142_" fill="#FFFFFF" stroke="#037599" stroke-miterlimit="10" d="M143.5,20.5v-3h-3.4c-0.2-2-0.6-3.8-1.4-5.5
				l3.7-2.1L140.7,7L137.1,9c-1.1-1.5-2.4-2.9-3.9-4l2.2-3.7l-2.9-1.7l-1.9,3.7c-1.7-0.8-4.1-1.3-5.1-1.6v-4.2h-4v4.1
				c-1,0.1-3.7,0.6-5.4,1.3L114-0.8l-2.9,1.7l2.1,3.6c-1.6,1.1-2.9,2.4-4,3.8l-3.7-2.1l-1.7,2.9l3.6,2c-0.8,1.7-1.4,3.3-1.6,5.3
				h-4.3v3h4.2c0.1,4,0.6,4,1.3,5.8l-3.6,2.2l1.7,3l3.5-2c1.1,1.6,2.4,3,3.9,4.1l-2,3.5l2.9,1.7l1.9-3.5c1.7,0.8,4.3,1.4,5.3,1.6
				v4.5h5v-4.4c0-0.1,3.2-0.6,4.9-1.3l1.7,3.5l2.8-1.7l-2.1-3.5c1.6-1.1,2.9-2.4,4-3.9l3.5,2.1l1.7-2.9l-3.5-2.2
				c0.8-1.7,1.3-2.6,1.6-5.6H143.5z"/>
			<circle id="XMLID_141_" fill="#FFFFFF" stroke="#037599" stroke-miterlimit="10" cx="122.9" cy="18.9" r="3"/>
		</g>
		<g id="XMLID_114_" clip-path="url(#XMLID_15_)">
			<path id="XMLID_116_" fill="#FFFFFF" stroke="#037599" stroke-miterlimit="10" d="M110.5,44.5v-3h-3.4c-0.2-2-0.6-3.8-1.4-5.5
				l3.7-2.1l-1.7-2.9l-3.6,2.1c-1.1-1.5-2.4-2.9-3.9-4l2.2-3.7l-2.9-1.7l-1.9,3.7c-1.7-0.8-4.1-1.3-5.1-1.6v-4.2h-4v4.1
				c-1,0.1-3.7,0.6-5.4,1.3L81,23.2l-2.9,1.7l2.1,3.6c-1.6,1.1-2.9,2.4-4,3.8l-3.7-2.1l-1.7,2.9l3.6,2c-0.8,1.7-1.4,3.3-1.6,5.3
				h-4.3v3h4.2c0.1,4,0.6,4,1.3,5.8l-3.6,2.2l1.7,3l3.5-2c1.1,1.6,2.4,3,3.9,4.1l-2,3.5l2.9,1.7l1.9-3.5c1.7,0.8,4.3,1.4,5.3,1.6
				v4.5h5v-4.4c0-0.1,3.2-0.6,4.9-1.3l1.7,3.5l2.8-1.7l-2.1-3.5c1.6-1.1,2.9-2.4,4-3.9l3.5,2.1l1.7-2.9l-3.5-2.2
				c0.8-1.7,1.3-2.6,1.6-5.6H110.5z"/>
			<circle id="XMLID_115_" fill="#FFFFFF" stroke="#037599" stroke-miterlimit="10" cx="89.9" cy="42.9" r="3"/>
		</g>
	</g>
	<polygon id="XMLID_130_" fill="none" stroke="#FFFFFF" stroke-miterlimit="10" points="118,131.6 30.4,131.6 30.4,18.2 46,18 
		58.7,23.3 118,94.7 	"/>
	<path id="XMLID_129_" fill="none" stroke="#FFFFFF" stroke-miterlimit="10" d="M43.5,18c23.4,0,27,17,23,58.5
		c52.7-4.9,51.2,18.7,51.2,18.7"/>
	<g id="XMLID_118_">
		<line id="XMLID_128_" fill="#037599" stroke="#FFFFFF" stroke-miterlimit="10" x1="52.5" y1="34" x2="64.7" y2="34"/>
		<line id="XMLID_127_" fill="#037599" stroke="#FFFFFF" stroke-miterlimit="10" x1="52.5" y1="43.4" x2="65.3" y2="43.4"/>
		<line id="XMLID_126_" fill="#037599" stroke="#FFFFFF" stroke-miterlimit="10" x1="52.5" y1="52.9" x2="65.3" y2="52.9"/>
		<line id="XMLID_125_" fill="#037599" stroke="#FFFFFF" stroke-miterlimit="10" x1="52.5" y1="62.3" x2="66.3" y2="62.3"/>
		<line id="XMLID_124_" fill="#037599" stroke="#FFFFFF" stroke-miterlimit="10" x1="52.5" y1="71.8" x2="63" y2="71.8"/>
		<line id="XMLID_123_" fill="#037599" stroke="#FFFFFF" stroke-miterlimit="10" x1="52.5" y1="81.2" x2="81.3" y2="81.2"/>
		<line id="XMLID_122_" fill="#037599" stroke="#FFFFFF" stroke-miterlimit="10" x1="52.5" y1="90.7" x2="95" y2="90.7"/>
		<line id="XMLID_121_" fill="#037599" stroke="#FFFFFF" stroke-miterlimit="10" x1="52.5" y1="100.1" x2="95" y2="100.1"/>
		<line id="XMLID_120_" fill="#037599" stroke="#FFFFFF" stroke-miterlimit="10" x1="52.5" y1="109.6" x2="95" y2="109.6"/>
		<line id="XMLID_119_" fill="#037599" stroke="#FFFFFF" stroke-miterlimit="10" x1="52.5" y1="119" x2="95" y2="119"/>
	</g>
	<polygon id="XMLID_147_" fill="#FFFFFF" stroke="#037599" stroke-miterlimit="10" points="83,53 111.4,83.6 94.5,76 82,75.5 
		66.5,76.5 67.5,65 68.5,43.5 63,29 	"/>
</g>
</svg>
