<?xml version="1.0" encoding="utf-8"?>
<!-- Generator: Adobe Illustrator 19.0.0, SVG Export Plug-In . SVG Version: 6.00 Build 0)  -->
<svg version="1.1" xmlns="http://www.w3.org/2000/svg" xmlns:xlink="http://www.w3.org/1999/xlink" x="0px" y="0px" width="150px"
	 height="150px" viewBox="0 0 150 150" enable-background="new 0 0 150 150" xml:space="preserve">
<g id="bg">
</g>
<g id="Layer_2">
	<polyline id="XMLID_16_" fill="none" stroke="#FFFFFF" stroke-miterlimit="10" points="14.6,103.6 14.6,19 135.7,19 135.7,103.6 	
		"/>
	<path id="XMLID_26_" fill="none" stroke="#FFFFFF" stroke-miterlimit="10" d="M121.9,95.7H28.5c-3.9,0-7-3.1-7-7V33.8
		c0-3.9,3.1-7,7-7h93.5c3.8,0,7,3.1,7,7v54.9C128.9,92.6,125.8,95.7,121.9,95.7z"/>
	<rect id="XMLID_139_" x="42.8" y="35" fill="#FFFFFF" width="65.3" height="61.3"/>
	<path id="XMLID_29_" fill="none" stroke="#FFFFFF" stroke-miterlimit="10" d="M88,103.5c0,1-1.1,3-2.4,3H66.8c-1.3,0-2.4-2-2.4-3
		H8.5v8h133v-8H88z"/>
	<g id="XMLID_64_">
		<line id="XMLID_15_" fill="none" stroke="#0D2E3E" stroke-miterlimit="10" x1="57" y1="47.5" x2="93" y2="47.5"/>
		<line id="XMLID_19_" fill="none" stroke="#0D2E3E" stroke-miterlimit="10" x1="57" y1="53.5" x2="93" y2="53.5"/>
		<line id="XMLID_20_" fill="none" stroke="#0D2E3E" stroke-miterlimit="10" x1="57" y1="59.5" x2="93" y2="59.5"/>
		<line id="XMLID_21_" fill="none" stroke="#0D2E3E" stroke-miterlimit="10" x1="57" y1="65.5" x2="93" y2="65.5"/>
		<line id="XMLID_22_" fill="none" stroke="#0D2E3E" stroke-miterlimit="10" x1="57" y1="71.5" x2="93" y2="71.5"/>
		<line id="XMLID_23_" fill="none" stroke="#0D2E3E" stroke-miterlimit="10" x1="57" y1="77.5" x2="93" y2="77.5"/>
		<line id="XMLID_24_" fill="none" stroke="#0D2E3E" stroke-miterlimit="10" x1="57" y1="83.5" x2="93" y2="83.5"/>
		<line id="XMLID_25_" fill="none" stroke="#0D2E3E" stroke-miterlimit="10" x1="57" y1="89.5" x2="93" y2="89.5"/>
	</g>
</g>
</svg>
